<?xml version="1.0" encoding="utf-8"?>
<!-- Generator: Adobe Illustrator 19.1.0, SVG Export Plug-In . SVG Version: 6.00 Build 0)  -->
<svg version="1.1" id="Слой_3" xmlns="http://www.w3.org/2000/svg" xmlns:xlink="http://www.w3.org/1999/xlink" x="0px" y="0px"
	 viewBox="0 0 128 128" enable-background="new 0 0 128 128" xml:space="preserve">
<g>
	<ellipse fill="#B8CBCD" cx="65.234" cy="108.179" rx="47.667" ry="10.186"/>
	<circle fill="#FFFFFF" cx="63.178" cy="58.991" r="48"/>
	<g>
		<defs>
			<path id="SVGID_1_" d="M114.726,56.565c1.449,27.092-20.727,49.714-48.285,50.316C39.489,108.68,12.89,86.549,13.491,55.846
				c1.028-31.052,27.354-47.7,51.687-45.666C90.329,10.435,114.046,29.042,114.726,56.565z"/>
		</defs>
		<clipPath id="SVGID_2_">
			<use xlink:href="#SVGID_1_"  overflow="visible"/>
		</clipPath>
	</g>
	<g>
		<defs>
			<path id="SVGID_3_" d="M114.726,56.565c1.449,27.092-20.727,49.714-48.285,50.316C39.489,108.68,12.89,86.549,13.491,55.846
				c1.028-31.052,27.354-47.7,51.687-45.666C90.329,10.435,114.046,29.042,114.726,56.565z"/>
		</defs>
		<clipPath id="SVGID_4_">
			<use xlink:href="#SVGID_3_"  overflow="visible"/>
		</clipPath>
		<path clip-path="url(#SVGID_4_)" fill="#B9E3ED" d="M-14.896,17.266c-0.043-2.269,0.089-4.189,0.188-5.952
			c2.972-2.635,6.434-4.652,10.294-5.687C-0.899,5.466,2.662,5.318,6.26,5.188c-0.475,0.12-0.705,0.684-0.589,1.83
			c-3.731,1.703-7.317,4.275-10.65,7.399C-8.678,15.26-12.013,16.209-14.896,17.266z"/>
		<path clip-path="url(#SVGID_4_)" fill="#324654" d="M-14.896,19.266c-0.398,0-0.792-0.119-1.13-0.35
			c-0.533-0.365-0.857-0.966-0.87-1.612c-0.039-2.096,0.065-3.913,0.157-5.517l0.033-0.585c0.03-0.533,0.271-1.031,0.67-1.385
			c3.376-2.993,7.111-5.053,11.104-6.122c0.14-0.037,0.282-0.06,0.426-0.066c3.522-0.161,7.089-0.309,10.693-0.44
			c0.999-0.049,1.907,0.703,2.052,1.716c0.095,0.657-0.143,1.292-0.594,1.726c0.003,0.054,0.008,0.115,0.016,0.186
			c0.086,0.852-0.38,1.666-1.16,2.021c-3.366,1.537-6.768,3.905-10.112,7.039c-0.26,0.243-0.578,0.412-0.924,0.491
			c-3.677,0.837-6.931,1.77-9.672,2.775C-14.431,19.226-14.664,19.266-14.896,19.266z M-12.76,12.274
			c-0.04,0.711-0.08,1.434-0.107,2.189c2.103-0.666,4.418-1.294,6.919-1.875c2.212-2.034,4.46-3.768,6.722-5.187
			C-0.86,7.47-2.485,7.541-4.101,7.614C-7.173,8.471-10.081,10.037-12.76,12.274z"/>
		<path clip-path="url(#SVGID_4_)" fill="#B9E3ED" d="M-3.587,102.892c-3.132-4.025-6.046-8.408-8.658-12.916
			c1.155-3.889,2.663-8.171,4.508-12.736c4.368,0.28,9.258,0.519,14.499,0.71c2.886,5.037,5.955,10.02,9.105,14.751
			c-2.25,4.436-4.211,8.485-5.811,12.008C5.173,104.204,0.585,103.602-3.587,102.892z"/>
		<path clip-path="url(#SVGID_4_)" fill="#324654" d="M10.058,106.708c-0.068,0-0.137-0.004-0.206-0.011
			c-5.05-0.521-9.684-1.138-13.774-1.834c-0.492-0.084-0.936-0.349-1.242-0.743c-3.107-3.993-6.071-8.415-8.811-13.142
			c-0.275-0.477-0.344-1.045-0.186-1.572c1.194-4.021,2.732-8.367,4.57-12.916c0.322-0.8,1.124-1.313,1.982-1.247
			c4.314,0.277,9.174,0.515,14.444,0.707c0.691,0.025,1.318,0.405,1.662,1.005c2.907,5.075,5.947,10,9.035,14.637
			c0.399,0.601,0.445,1.37,0.118,2.013c-2.251,4.439-4.193,8.453-5.773,11.931C11.551,106.255,10.835,106.708,10.058,106.708z
			 M-2.483,101.049c3.421,0.565,7.22,1.074,11.319,1.519c1.353-2.928,2.936-6.191,4.721-9.732c-2.72-4.128-5.398-8.468-7.977-12.929
			c-4.308-0.164-8.331-0.359-11.998-0.581c-1.434,3.638-2.663,7.124-3.662,10.394C-7.694,93.768-5.144,97.573-2.483,101.049z"/>
		<path clip-path="url(#SVGID_4_)" fill="#324654" d="M-7.737,77.239c-2.528-4.845-4.77-9.688-6.667-14.353
			c1.914-4.674,4.176-9.519,6.718-14.357c4.365-0.296,9.251-0.542,14.487-0.746c2.338,4.822,4.951,9.903,7.748,15.066
			c-2.809,5.167-5.435,10.259-7.787,15.1C1.52,77.758-3.369,77.519-7.737,77.239z"/>
		<path clip-path="url(#SVGID_4_)" fill="#B9E3ED" d="M-7.684,48.474c-1.823-4.545-3.31-8.796-4.444-12.654
			c2.629-4.491,5.56-8.846,8.708-12.832c4.164-0.716,8.742-1.324,13.609-1.832c1.579,3.474,3.519,7.476,5.752,11.878
			c-3.158,4.703-6.237,9.667-9.138,14.692C1.569,47.93-3.316,48.177-7.684,48.474z"/>
		<path clip-path="url(#SVGID_4_)" fill="#324654" d="M-7.685,50.474c-0.812,0-1.55-0.493-1.856-1.255
			c-1.82-4.538-3.337-8.856-4.507-12.835c-0.155-0.529-0.086-1.099,0.193-1.575c2.757-4.71,5.739-9.104,8.864-13.061
			c0.306-0.388,0.744-0.648,1.23-0.731c4.091-0.703,8.714-1.326,13.74-1.851c0.86-0.079,1.673,0.378,2.028,1.161
			c1.561,3.432,3.483,7.402,5.715,11.801c0.328,0.646,0.281,1.419-0.123,2.02c-3.082,4.59-6.132,9.494-9.065,14.577
			c-0.344,0.595-0.968,0.972-1.654,0.998c-5.399,0.211-10.254,0.462-14.43,0.745C-7.594,50.472-7.639,50.474-7.685,50.474z
			 M-9.962,36.084c0.977,3.228,2.185,6.683,3.6,10.298c3.575-0.228,7.596-0.433,11.986-0.611c2.601-4.464,5.288-8.787,8.005-12.877
			c-1.763-3.495-3.324-6.713-4.658-9.597C4.888,23.745,1.098,24.26-2.323,24.83C-4.998,28.272-7.563,32.052-9.962,36.084z"/>
		<path clip-path="url(#SVGID_4_)" fill="#B9E3ED" d="M-3.42,22.987c-1.02-3.271-1.684-6.055-2.035-8.348
			c3.316-3.148,6.892-5.751,10.618-7.492C9,6.577,13.031,6.085,17.201,5.672c0.592,0.993,1.605,2.716,3.017,5.126
			c-3.356,2.838-6.738,6.378-10.028,10.358C5.322,21.663,0.744,22.271-3.42,22.987z"/>
		<path clip-path="url(#SVGID_4_)" fill="#324654" d="M-3.421,24.987c-0.861,0-1.645-0.558-1.908-1.404
			c-1.016-3.255-1.723-6.162-2.103-8.641c-0.1-0.648,0.124-1.302,0.6-1.753c3.64-3.456,7.391-6.099,11.148-7.854
			c0.175-0.082,0.361-0.139,0.553-0.167c3.82-0.567,7.903-1.068,12.135-1.487c0.768-0.076,1.519,0.3,1.915,0.967
			c0.594,0.995,1.61,2.723,3.024,5.139c0.491,0.839,0.309,1.91-0.434,2.538c-3.14,2.655-6.43,6.055-9.778,10.104
			c-0.333,0.403-0.813,0.66-1.333,0.715c-4.94,0.516-9.475,1.126-13.479,1.814C-3.195,24.977-3.309,24.987-3.421,24.987z
			 M-3.304,15.37c0.295,1.606,0.727,3.398,1.292,5.356c3.416-0.548,7.166-1.042,11.184-1.474c2.876-3.429,5.722-6.405,8.481-8.874
			c-0.603-1.028-1.111-1.893-1.521-2.588C12.524,8.165,9.039,8.599,5.75,9.082C2.729,10.531-0.312,12.643-3.304,15.37z"/>
		<path clip-path="url(#SVGID_4_)" fill="#B9E3ED" d="M15.941,92.489c-3.149-4.739-6.216-9.729-9.101-14.769
			c2.361-4.85,5.381-10.414,8.19-15.582c5.327,0.002,10.761,0.007,16.776,0.004c3.004,5.281,6.444,11.056,9.525,16.243
			c-2.978,5.152-5.854,10.133-8.523,14.752C27.017,92.996,21.349,92.78,15.941,92.489z"/>
		<path clip-path="url(#SVGID_4_)" fill="#324654" d="M32.809,95.138c-0.017,0-0.032,0-0.049-0.001
			c-5.879-0.144-11.574-0.362-16.927-0.65c-0.631-0.034-1.209-0.364-1.559-0.89c-3.118-4.693-6.203-9.7-9.17-14.883
			c-0.329-0.574-0.352-1.273-0.063-1.869c2.429-4.987,5.512-10.658,8.232-15.661c0.35-0.645,1.024-1.045,1.757-1.045h0.001
			l12.863,0.005l3.911-0.001h0.001c0.719,0,1.383,0.386,1.738,1.011c2.786,4.898,6.014,10.331,8.86,15.123l0.647,1.088
			c0.369,0.622,0.374,1.396,0.012,2.022l-8.523,14.752C34.184,94.758,33.522,95.138,32.809,95.138z M17.054,90.545
			c4.656,0.241,9.563,0.431,14.618,0.563l7.343-12.709l-0.048-0.08c-2.662-4.481-5.655-9.519-8.32-14.177l-2.751,0.001L16.22,64.14
			c-2.378,4.377-4.974,9.179-7.114,13.507C11.688,82.119,14.357,86.45,17.054,90.545z"/>
		<path clip-path="url(#SVGID_4_)" fill="#B9E3ED" d="M15.031,63.019C12.24,57.857,9.24,52.367,6.906,47.549
			c2.904-5.023,5.984-9.985,9.145-14.682c5.391-0.302,11.041-0.524,16.814-0.671c2.649,4.566,5.514,9.507,8.481,14.634
			c-3.081,5.166-6.525,10.906-9.538,16.19C25.791,63.023,20.638,63.013,15.031,63.019z"/>
		<path clip-path="url(#SVGID_4_)" fill="#324654" d="M29.591,65.021l-10.42-0.004l-4.138,0.002h-0.002
			c-0.734,0-1.41-0.402-1.76-1.049l-0.792-1.464c-2.575-4.759-5.239-9.681-7.373-14.086c-0.289-0.598-0.264-1.299,0.068-1.873
			c2.998-5.185,6.099-10.163,9.217-14.797c0.35-0.52,0.922-0.846,1.548-0.881c5.283-0.296,10.961-0.523,16.875-0.673
			c0.732-0.029,1.414,0.363,1.78,0.995c2.65,4.567,5.515,9.509,8.482,14.636c0.363,0.628,0.357,1.403-0.014,2.026l-1.068,1.79
			c-2.847,4.77-5.791,9.702-8.45,14.366c-0.355,0.624-1.019,1.01-1.736,1.01L29.591,65.021z M19.171,61.018l10.42,0.004l1.057-0.001
			c2.522-4.395,5.26-8.98,7.913-13.426l0.466-0.78c-2.537-4.383-4.992-8.617-7.295-12.588c-5.08,0.14-9.972,0.335-14.574,0.583
			c-2.697,4.046-5.378,8.351-7.985,12.82c2.014,4.081,4.457,8.596,6.826,12.973l0.225,0.416L19.171,61.018z"/>
		<path clip-path="url(#SVGID_4_)" fill="#B9E3ED" d="M41.399,106.489c-2.978-3.938-6.087-8.394-9.215-13.146
			c2.652-4.604,5.41-9.396,8.38-14.542c6.142-0.007,12.269-0.008,18.41-0.003c2.97,5.149,5.76,9.944,8.418,14.551
			c-3.125,4.755-6.232,9.21-9.203,13.146C52.611,106.594,46.976,106.591,41.399,106.489z"/>
		<path clip-path="url(#SVGID_4_)" fill="#324654" d="M49.978,108.567c-2.861,0-5.761-0.026-8.615-0.078
			c-0.614-0.012-1.188-0.304-1.559-0.794c-2.911-3.851-6.036-8.31-9.29-13.253c-0.415-0.632-0.439-1.443-0.063-2.098l2.345-4.07
			c1.931-3.353,3.931-6.824,6.036-10.474c0.357-0.618,1.017-0.999,1.73-1c3.584-0.004,7.163-0.006,10.743-0.006l7.671,0.003
			c0.714,0.001,1.374,0.382,1.73,1.001c1.563,2.71,3.077,5.323,4.548,7.861c1.323,2.284,2.611,4.508,3.87,6.688
			c0.378,0.655,0.354,1.467-0.062,2.099c-3.236,4.925-6.358,9.384-9.277,13.253c-0.371,0.49-0.946,0.784-1.561,0.795
			C55.505,108.543,52.729,108.567,49.978,108.567z M42.411,104.506c4.913,0.08,9.889,0.082,14.767,0.006
			c2.493-3.341,5.133-7.111,7.865-11.233c-1.062-1.836-2.143-3.703-3.249-5.612c-1.29-2.228-2.613-4.512-3.975-6.868l-6.514-0.003
			c-3.194,0-6.389,0.001-9.586,0.005c-1.895,3.284-3.704,6.427-5.458,9.471l-1.728,3C37.279,97.407,39.923,101.179,42.411,104.506z"
			/>
		<path clip-path="url(#SVGID_4_)" fill="#B9E3ED" d="M40.681,47.016c-2.963-5.129-5.817-10.071-8.457-14.64
			c3.128-4.72,6.151-8.862,9.122-12.744c5.313,0.008,11.509,0.01,16.822,0.003c2.967,3.883,6.061,8.013,9.188,12.733
			c-2.646,4.572-5.505,9.517-8.47,14.646C52.838,46.976,46.726,46.975,40.681,47.016z"/>
		<path clip-path="url(#SVGID_4_)" fill="#324654" d="M40.681,49.016c-0.714,0-1.374-0.381-1.731-1l-8.457-14.639
			c-0.38-0.657-0.355-1.473,0.064-2.105c2.807-4.235,5.731-8.32,9.201-12.856c0.378-0.494,0.965-0.784,1.588-0.784
			c0.001,0,0.002,0,0.003,0c3.091,0.005,6.48,0.007,9.821,0.007l6.995-0.004c0.001,0,0.002,0,0.003,0
			c0.623,0,1.211,0.29,1.589,0.786c2.758,3.608,5.975,7.874,9.266,12.843c0.42,0.633,0.444,1.449,0.064,2.106l-8.47,14.645
			c-0.357,0.618-1.018,0.999-1.731,0.999c-0.004,0-0.009,0-0.013,0c-6.039-0.038-12.142-0.04-18.179,0.002
			C40.689,49.016,40.685,49.016,40.681,49.016z M34.577,32.452l7.254,12.556c5.287-0.031,10.616-0.03,15.905-0.001l7.265-12.563
			c-2.75-4.084-5.441-7.684-7.822-10.809l-6.009,0.003c-2.989,0-6.017-0.002-8.835-0.006C39.458,25.418,36.961,28.9,34.577,32.452z"
			/>
		<path clip-path="url(#SVGID_4_)" fill="#B9E3ED" d="M41.346,19.632c-2.584-3.779-4.844-7.284-6.835-9.777
			c3.043-2.712,5.939-4.677,8.542-5.658C47.561,4.11,52.1,4.107,56.609,4.19c2.588,0.979,5.469,2.939,8.504,5.649
			c-2.006,2.495-4.351,6.014-6.945,9.796C52.853,19.642,46.66,19.64,41.346,19.632z"/>
		<path clip-path="url(#SVGID_4_)" fill="#324654" d="M51.169,21.639c-3.342,0-6.732-0.002-9.826-0.007
			c-0.659-0.001-1.276-0.327-1.648-0.871c-0.652-0.955-1.284-1.892-1.896-2.8c-1.754-2.6-3.41-5.056-4.85-6.858
			c-0.663-0.83-0.561-2.034,0.232-2.741c3.33-2.967,6.414-4.998,9.167-6.036c0.214-0.081,0.44-0.124,0.668-0.129
			c4.534-0.085,9.098-0.088,13.632-0.006c0.229,0.005,0.456,0.048,0.67,0.129c2.737,1.035,5.809,3.063,9.129,6.027
			c0.794,0.709,0.894,1.916,0.227,2.745c-1.638,2.037-3.578,4.879-5.633,7.888l-1.222,1.786c-0.372,0.543-0.988,0.868-1.646,0.869
			L51.169,21.639z M42.404,17.633c2.799,0.004,5.801,0.006,8.765,0.006l5.943-0.003l0.624-0.912
			c1.636-2.396,3.201-4.688,4.634-6.605c-2.261-1.867-4.326-3.187-6.156-3.935c-4.248-0.074-8.518-0.072-12.766,0.006
			c-1.848,0.751-3.927,2.077-6.202,3.952c1.216,1.651,2.514,3.575,3.868,5.583C41.534,16.348,41.965,16.985,42.404,17.633z"/>
		<path clip-path="url(#SVGID_4_)" fill="#B9E3ED" d="M67.269,93.132c-2.666-4.618-5.54-9.597-8.512-14.748
			c3.082-5.188,5.97-10.961,8.971-16.241c6.008,0.004,12.037-0.007,17.636-0.003c2.808,5.166,5.492,10.726,7.85,15.572
			c-2.882,5.036-5.943,10.026-9.091,14.767C78.721,92.769,73.059,92.989,67.269,93.132z"/>
		<path clip-path="url(#SVGID_4_)" fill="#324654" d="M67.269,95.132c-0.714,0-1.374-0.38-1.732-1l1.732-1l-1.733,0.998
			l-8.511-14.747c-0.361-0.626-0.357-1.398,0.013-2.021c1.746-2.94,3.466-6.136,5.128-9.227c1.245-2.315,2.532-4.709,3.823-6.981
			c0.356-0.625,1.02-1.012,1.739-1.012h0.001l2.855,0.001l12.087-0.005l2.693,0.001c0.732,0.001,1.406,0.401,1.756,1.045
			c2.666,4.905,5.222,10.162,7.477,14.8l0.415,0.853c0.289,0.595,0.266,1.294-0.063,1.868c-2.978,5.202-6.06,10.208-9.161,14.88
			c-0.35,0.526-0.928,0.856-1.559,0.891c-5.427,0.292-11.116,0.513-16.912,0.655C67.303,95.132,67.286,95.132,67.269,95.132z
			 M61.072,78.393l7.335,12.71c4.99-0.133,9.893-0.323,14.604-0.568c2.684-4.08,5.351-8.411,7.941-12.9
			c-2.064-4.244-4.379-9.004-6.782-13.494l-1.498-0.001l-12.087,0.005l-1.688-0.001c-1.079,1.929-2.158,3.937-3.208,5.888
			C64.193,72.81,62.653,75.675,61.072,78.393z"/>
		<path clip-path="url(#SVGID_4_)" fill="#B9E3ED" d="M67.728,63.02c-3.011-5.283-5.901-11.022-8.984-16.188
			c2.964-5.126,5.822-10.065,8.47-14.63c5.77,0.149,11.414,0.374,16.799,0.677c3.158,4.696,6.236,9.657,9.136,14.679
			c-2.332,4.815-4.995,10.302-7.785,15.462C79.765,63.012,73.736,63.023,67.728,63.02z"/>
		<path clip-path="url(#SVGID_4_)" fill="#324654" d="M69.811,65.02h-2.084c-0.718,0-1.381-0.386-1.736-1.01
			c-1.282-2.249-2.559-4.61-3.793-6.894c-1.677-3.103-3.411-6.311-5.172-9.26c-0.371-0.623-0.377-1.398-0.014-2.026
			c2.965-5.127,5.823-10.067,8.471-14.633c0.367-0.632,1.053-1.031,1.782-0.995c5.878,0.152,11.55,0.381,16.859,0.679
			c0.625,0.035,1.198,0.361,1.547,0.881c3.124,4.646,6.222,9.623,9.209,14.795c0.331,0.574,0.356,1.275,0.067,1.872
			c-2.208,4.559-4.955,10.232-7.825,15.541c-0.35,0.646-1.025,1.049-1.76,1.049c-0.001,0-0.002,0-0.003,0l-4.419-0.003L69.811,65.02
			z M68.895,61.02l15.271-0.002c2.431-4.558,4.763-9.342,6.719-13.377c-2.6-4.461-5.278-8.766-7.98-12.82
			c-4.621-0.25-9.508-0.447-14.559-0.588c-2.301,3.97-4.753,8.205-7.287,12.588c1.594,2.728,3.148,5.604,4.656,8.394
			C66.757,57.138,67.825,59.115,68.895,61.02z"/>
		<path clip-path="url(#SVGID_4_)" fill="#B9E3ED" d="M64.972,9.713c-3.029-2.688-5.902-4.621-8.48-5.568
			c1.922-0.871,3.455-0.797,4.515,0.312c3.737,0.033,7.465,0.084,11.172,0.15c3.39-0.797,6.953-0.37,10.531,1.007
			c-0.587,0.967-1.596,2.67-3,5.061C74.949,10.246,70.006,9.925,64.972,9.713z"/>
		<path clip-path="url(#SVGID_4_)" fill="#324654" d="M79.71,12.674c-0.061,0-0.12-0.003-0.18-0.008
			c-4.699-0.423-9.626-0.744-14.642-0.955c-0.46-0.019-0.9-0.196-1.243-0.502c-2.943-2.611-5.582-4.357-7.843-5.188
			c-0.763-0.279-1.279-0.992-1.31-1.804c-0.029-0.811,0.434-1.56,1.174-1.895c2.375-1.078,4.499-1.004,6.085,0.14
			c3.418,0.032,6.828,0.079,10.221,0.14c3.574-0.782,7.46-0.392,11.456,1.145c0.553,0.213,0.982,0.659,1.174,1.22
			c0.191,0.562,0.125,1.178-0.183,1.685c-0.584,0.962-1.588,2.656-2.985,5.035C81.072,12.302,80.414,12.674,79.71,12.674z
			 M65.76,7.745c4.391,0.194,8.709,0.472,12.865,0.826c0.398-0.677,0.759-1.286,1.079-1.827c-2.5-0.642-4.875-0.708-7.068-0.19
			c-0.162,0.038-0.315,0.054-0.494,0.053c-2.623-0.047-5.257-0.087-7.896-0.117C64.743,6.885,65.249,7.304,65.76,7.745z"/>
		<path clip-path="url(#SVGID_4_)" fill="#B9E3ED" d="M89.377,104.759c-1.623-3.533-3.602-7.59-5.868-12.032
			c3.15-4.734,6.223-9.72,9.116-14.76c5.262-0.191,10.177-0.426,14.579-0.702c1.864,4.574,3.396,8.867,4.577,12.77
			c-2.623,4.515-5.55,8.902-8.685,12.93C98.894,103.667,94.278,104.264,89.377,104.759z"/>
		<path clip-path="url(#SVGID_4_)" fill="#324654" d="M89.376,106.759c-0.774,0-1.488-0.45-1.816-1.165
			c-1.612-3.511-3.575-7.534-5.832-11.958c-0.329-0.645-0.284-1.415,0.116-2.018c3.082-4.631,6.126-9.56,9.047-14.647
			c0.344-0.599,0.972-0.978,1.662-1.003c5.338-0.194,10.226-0.43,14.526-0.699c0.855-0.055,1.653,0.446,1.978,1.241
			c1.857,4.558,3.418,8.913,4.639,12.944c0.161,0.531,0.094,1.105-0.185,1.585c-2.741,4.717-5.714,9.143-8.837,13.153
			c-0.308,0.396-0.754,0.661-1.248,0.744c-4.134,0.691-8.793,1.302-13.848,1.813C89.511,106.756,89.443,106.759,89.376,106.759z
			 M85.819,92.858c1.794,3.537,3.394,6.812,4.772,9.764c4.115-0.438,7.94-0.942,11.402-1.504c2.674-3.489,5.231-7.296,7.617-11.337
			c-1.021-3.283-2.271-6.782-3.724-10.433c-3.667,0.218-7.72,0.41-12.083,0.576C91.216,84.393,88.535,88.735,85.819,92.858z"/>
		<path clip-path="url(#SVGID_4_)" fill="#B9E3ED" d="M92.581,47.709c-2.904-5.029-5.985-9.998-9.144-14.702
			c2.248-4.407,4.207-8.423,5.807-11.902c4.889,0.499,9.491,1.101,13.685,1.81c3.153,3.988,6.094,8.347,8.737,12.844
			c-1.162,3.87-2.671,8.135-4.518,12.689C102.748,48.155,97.838,47.909,92.581,47.709z"/>
		<path clip-path="url(#SVGID_4_)" fill="#324654" d="M107.149,50.447c-0.045,0-0.089-0.001-0.134-0.004
			c-4.288-0.285-9.17-0.532-14.511-0.735c-0.687-0.026-1.313-0.403-1.656-0.999c-2.944-5.099-5.996-10.007-9.071-14.587
			c-0.405-0.603-0.451-1.378-0.121-2.024c2.238-4.388,4.18-8.367,5.771-11.828c0.357-0.777,1.17-1.254,2.02-1.154
			c5.023,0.513,9.67,1.127,13.815,1.827c0.488,0.082,0.929,0.343,1.236,0.731c3.128,3.956,6.119,8.354,8.893,13.07
			c0.281,0.48,0.351,1.056,0.19,1.589c-1.206,4.018-2.747,8.346-4.579,12.866C108.694,49.957,107.959,50.447,107.149,50.447z
			 M93.759,45.753c4.364,0.174,8.413,0.376,12.072,0.605c1.429-3.61,2.658-7.078,3.665-10.34c-2.411-4.036-4.984-7.817-7.662-11.259
			c-3.468-0.568-7.285-1.077-11.377-1.518c-1.357,2.905-2.936,6.134-4.706,9.628C88.462,36.952,91.15,41.277,93.759,45.753z"/>
		<path clip-path="url(#SVGID_4_)" fill="#B9E3ED" d="M89.244,21.104c-3.287-3.981-6.664-7.522-10.013-10.356
			c1.434-2.412,2.474-4.14,3.089-5.125c4.182,0.405,8.225,0.891,12.077,1.458c3.726,1.73,7.307,4.319,10.632,7.463
			c-0.371,2.298-1.057,5.087-2.101,8.369C98.735,22.206,94.135,21.603,89.244,21.104z"/>
		<path clip-path="url(#SVGID_4_)" fill="#324654" d="M102.93,24.914c-0.11,0-0.222-0.009-0.334-0.028
			c-4.062-0.686-8.622-1.288-13.555-1.792c-0.523-0.053-1.004-0.31-1.339-0.716c-3.349-4.055-6.634-7.454-9.763-10.102
			c-0.746-0.631-0.927-1.708-0.428-2.548c1.444-2.43,2.492-4.17,3.112-5.163c0.401-0.642,1.113-1.015,1.89-0.931
			c4.258,0.412,8.354,0.907,12.175,1.47c0.191,0.028,0.376,0.083,0.551,0.164c3.766,1.748,7.522,4.381,11.164,7.824
			c0.481,0.455,0.706,1.118,0.601,1.772c-0.4,2.476-1.13,5.388-2.169,8.656C104.567,24.361,103.787,24.914,102.93,24.914z
			 M90.261,19.199c4.026,0.423,7.806,0.913,11.269,1.46c0.583-1.972,1.031-3.775,1.341-5.388c-2.991-2.713-6.032-4.813-9.056-6.254
			c-3.3-0.481-6.807-0.91-10.446-1.28c-0.422,0.694-0.945,1.563-1.564,2.601C84.553,12.8,87.39,15.772,90.261,19.199z"/>
		<path clip-path="url(#SVGID_4_)" fill="#B9E3ED" d="M111.881,89.823c-1.182-3.907-2.717-8.206-4.585-12.787
			c2.532-4.852,4.784-9.7,6.692-14.37c3.85,0.013,7.078,0.028,9.494,0.047c1.222,4.295,2.057,8.368,2.555,12.116
			c-1.102,4.213-2.638,8.578-4.588,12.903C118.929,88.518,115.684,89.214,111.881,89.823z"/>
		<path clip-path="url(#SVGID_4_)" fill="#324654" d="M111.879,91.823c-0.868,0-1.654-0.566-1.912-1.421
			c-1.182-3.905-2.703-8.148-4.522-12.611c-0.223-0.544-0.193-1.159,0.078-1.681c2.479-4.749,4.705-9.527,6.614-14.201
			c0.308-0.752,1.039-1.243,1.851-1.243c0.002,0,0.004,0,0.007,0c3.852,0.013,7.084,0.028,9.503,0.047
			c0.888,0.007,1.665,0.599,1.908,1.453c1.202,4.229,2.082,8.4,2.613,12.399c0.034,0.258,0.019,0.519-0.048,0.77
			c-1.154,4.417-2.735,8.865-4.699,13.22c-0.235,0.521-0.683,0.917-1.229,1.087c-2.536,0.79-5.85,1.516-9.847,2.156
			C112.091,91.815,111.984,91.823,111.879,91.823z M109.495,77.14c1.462,3.638,2.729,7.132,3.777,10.422
			c2.623-0.46,4.875-0.957,6.724-1.483c1.646-3.759,2.991-7.579,4.006-11.375c-0.448-3.234-1.135-6.591-2.046-10.001
			c-1.867-0.012-4.099-0.022-6.633-0.031C113.6,68.788,111.643,72.973,109.495,77.14z"/>
		<path clip-path="url(#SVGID_4_)" fill="#B9E3ED" d="M113.988,62.666c-1.937-4.685-4.218-9.536-6.774-14.379
			c1.837-4.548,3.34-8.804,4.493-12.666c3.797,0.631,7.044,1.35,9.573,2.161c1.983,4.308,3.551,8.671,4.682,12.89
			c-0.478,3.716-1.285,7.761-2.479,12.041C121.065,62.694,117.837,62.68,113.988,62.666z"/>
		<path clip-path="url(#SVGID_4_)" fill="#324654" d="M123.482,64.713c-0.005,0-0.01,0-0.016,0
			c-2.415-0.019-5.641-0.033-9.485-0.047c-0.807-0.003-1.533-0.49-1.842-1.235c-1.935-4.683-4.188-9.463-6.694-14.21
			c-0.275-0.521-0.307-1.137-0.086-1.683c1.786-4.423,3.277-8.625,4.432-12.489c0.288-0.966,1.259-1.563,2.244-1.4
			c4.001,0.664,7.316,1.415,9.857,2.23c0.533,0.171,0.971,0.559,1.205,1.068c1.997,4.338,3.61,8.781,4.797,13.208
			c0.067,0.252,0.085,0.514,0.052,0.772c-0.511,3.977-1.364,8.122-2.536,12.323C125.167,64.115,124.379,64.713,123.482,64.713z
			 M115.321,60.671c2.532,0.01,4.763,0.02,6.633,0.031c0.882-3.372,1.544-6.692,1.973-9.894c-1.043-3.808-2.418-7.63-4.096-11.379
			c-1.848-0.543-4.103-1.058-6.729-1.536c-1.023,3.244-2.26,6.692-3.688,10.281C111.589,52.347,113.571,56.54,115.321,60.671z"/>
		<path clip-path="url(#SVGID_4_)" fill="#324654" d="M111.697,35.572c-2.645-4.489-5.59-8.839-8.744-12.816
			c1.034-3.267,1.71-6.039,2.07-8.323c3.693,0.843,7.024,1.795,9.902,2.852c2.836,3.328,5.266,7.098,7.22,11.041
			c-0.078,2.79-0.324,5.914-0.875,9.409C118.742,36.925,115.495,36.204,111.697,35.572z"/>
		<path clip-path="url(#SVGID_4_)" fill="#B9E3ED" d="M105.023,14.433c-3.329-3.129-6.912-5.702-10.645-7.408
			c0.118-1.145-0.114-1.712-0.588-1.832c3.598,0.131,7.156,0.278,10.672,0.44c3.856,1.036,7.317,3.057,10.283,5.694
			c0.096,1.765,0.225,3.688,0.18,5.958C112.048,16.227,108.716,15.277,105.023,14.433z"/>
		<path clip-path="url(#SVGID_4_)" fill="#324654" d="M114.926,19.285c-0.232,0-0.467-0.04-0.69-0.123
			c-2.722-1.001-5.972-1.937-9.658-2.78c-0.346-0.079-0.665-0.249-0.924-0.492c-3.336-3.135-6.735-5.506-10.105-7.046
			c-0.78-0.357-1.246-1.171-1.158-2.024c0.007-0.07,0.012-0.132,0.015-0.185c-0.449-0.433-0.688-1.067-0.593-1.726
			c0.146-1.012,1.041-1.768,2.052-1.715c3.605,0.132,7.17,0.279,10.692,0.441c0.144,0.007,0.288,0.029,0.427,0.066
			c3.993,1.073,7.726,3.136,11.094,6.132c0.398,0.354,0.639,0.854,0.668,1.386l0.033,0.596c0.089,1.603,0.19,3.419,0.149,5.511
			c-0.013,0.646-0.338,1.247-0.872,1.611C115.717,19.167,115.323,19.285,114.926,19.285z M105.995,12.604
			c2.501,0.584,4.813,1.213,6.906,1.877c-0.026-0.758-0.065-1.483-0.105-2.196c-2.672-2.239-5.576-3.807-8.647-4.665
			c-1.617-0.074-3.243-0.146-4.879-0.213C101.534,8.829,103.783,10.566,105.995,12.604z"/>
		<path clip-path="url(#SVGID_4_)" fill="#B9E3ED" d="M122.111,97.56c-0.102-2.836-0.385-6.01-0.974-9.557
			c1.984-4.331,3.563-8.706,4.706-12.937c1.671-0.469,2.461-0.986,2.202-1.556c-0.287,3.209-0.826,6.085-1.39,8.688
			c0.392,3.753,0.227,7.698-0.537,11.616C125.558,95.182,124.175,96.429,122.111,97.56z"/>
		<path clip-path="url(#SVGID_4_)" fill="#324654" d="M122.111,99.56c-0.341,0-0.682-0.087-0.988-0.261
			c-0.604-0.343-0.985-0.975-1.011-1.668c-0.11-3.081-0.42-6.123-0.947-9.301c-0.065-0.394-0.012-0.798,0.154-1.16
			c1.913-4.176,3.459-8.424,4.594-12.625c0.183-0.681,0.712-1.214,1.391-1.404c0.388-0.108,0.661-0.204,0.851-0.278
			c0.232-0.681,0.822-1.198,1.556-1.323c0.897-0.157,1.781,0.317,2.156,1.145c0.274,0.603,0.302,1.253,0.09,1.854
			c-0.317,3.038-0.838,5.716-1.278,7.774c0.377,3.924,0.178,7.921-0.596,11.886c-0.025,0.129-0.063,0.256-0.113,0.378
			c-0.733,1.783-2.335,3.332-4.896,4.737C122.773,99.478,122.442,99.56,122.111,99.56z M123.209,88.28
			c0.291,1.838,0.514,3.638,0.669,5.43c0.143-0.184,0.246-0.351,0.321-0.501c0.551-2.918,0.76-5.851,0.623-8.748
			C124.317,85.738,123.779,87.013,123.209,88.28z"/>
		<path clip-path="url(#SVGID_4_)" fill="#324654" d="M125.844,75.067c-0.523-3.76-1.382-7.845-2.631-12.154
			c1.231-4.298,2.075-8.366,2.583-12.107c1.675,0.49,2.475,1.033,2.226,1.628c0.046,3.789-0.37,7.341-1.108,10.559
			c0.741,3.204,1.165,6.74,1.133,10.52C128.305,74.081,127.514,74.598,125.844,75.067z"/>
		<path clip-path="url(#SVGID_4_)" fill="#B9E3ED" d="M-4.414,120.83c-3.86-1.034-7.321-3.052-10.294-5.687
			c-0.099-1.762-0.229-3.683-0.188-5.951c2.884,1.056,6.219,2.005,9.916,2.847c3.333,3.126,6.918,5.695,10.65,7.4
			c-0.117,1.146,0.114,1.709,0.589,1.83C2.662,121.139-0.899,120.992-4.414,120.83z"/>
		<path clip-path="url(#SVGID_4_)" fill="#324654" d="M6.261,123.269c-0.024,0-0.049,0-0.073-0.001
			c-3.604-0.132-7.173-0.278-10.693-0.44c-0.144-0.007-0.287-0.029-0.426-0.066c-3.99-1.068-7.727-3.129-11.103-6.121
			c-0.399-0.354-0.641-0.853-0.671-1.386l-0.032-0.567c-0.092-1.608-0.196-3.431-0.158-5.532c0.013-0.646,0.336-1.247,0.869-1.612
			c0.534-0.365,1.211-0.451,1.818-0.229c2.745,1.005,5.999,1.938,9.673,2.774c0.346,0.079,0.665,0.248,0.924,0.491
			c3.338,3.131,6.74,5.499,10.113,7.04c0.78,0.356,1.246,1.17,1.158,2.022c-0.006,0.063-0.011,0.118-0.014,0.167
			c0.39,0.365,0.633,0.884,0.633,1.46c0,1.104-0.895,2-2,2C6.272,123.268,6.266,123.268,6.261,123.269z M-4.101,118.843
			c1.615,0.074,3.24,0.145,4.874,0.212c-2.264-1.42-4.512-3.153-6.723-5.187c-2.498-0.581-4.813-1.208-6.918-1.874
			c0.027,0.755,0.067,1.478,0.107,2.188C-10.08,116.421-7.171,117.986-4.101,118.843z"/>
		<path clip-path="url(#SVGID_4_)" fill="#B9E3ED" d="M5.653,119.381c-3.727-1.725-7.31-4.314-10.64-7.454
			c0.37-2.297,1.055-5.085,2.098-8.367c4.2,0.708,8.807,1.31,13.7,1.806c3.29,3.979,6.667,7.517,10.015,10.348
			c-1.434,2.413-2.478,4.139-3.093,5.124C13.55,120.433,9.506,119.945,5.653,119.381z"/>
		<path clip-path="url(#SVGID_4_)" fill="#324654" d="M17.733,122.837c-0.063,0-0.128-0.003-0.192-0.009
			c-4.208-0.407-8.305-0.901-12.178-1.469c-0.19-0.027-0.376-0.083-0.551-0.164c-3.76-1.74-7.519-4.37-11.171-7.814
			c-0.482-0.455-0.708-1.119-0.603-1.773c0.398-2.475,1.128-5.386,2.166-8.654c0.302-0.95,1.261-1.53,2.238-1.367
			c4.073,0.688,8.639,1.289,13.57,1.788c0.523,0.054,1.004,0.311,1.339,0.716c3.354,4.055,6.639,7.451,9.765,10.095
			c0.747,0.631,0.928,1.709,0.428,2.55c-1.444,2.431-2.495,4.168-3.115,5.161C19.062,122.484,18.419,122.837,17.733,122.837z
			 M6.234,117.444c3.341,0.485,6.85,0.914,10.452,1.279c0.423-0.693,0.946-1.563,1.566-2.6c-2.746-2.459-5.583-5.428-8.457-8.853
			c-4.027-0.421-7.812-0.909-11.284-1.457c-0.582,1.971-1.03,3.773-1.339,5.384C0.172,113.911,3.216,116.009,6.234,117.444z"/>
		<path clip-path="url(#SVGID_4_)" fill="#B9E3ED" d="M27.875,121.853c-3.39,0.796-6.953,0.369-10.53-1.007
			c0.587-0.967,1.597-2.667,3.002-5.057c4.763,0.426,9.707,0.746,14.741,0.957c3.027,2.686,5.898,4.617,8.475,5.567
			c-1.923,0.869-3.458,0.795-4.515-0.312C35.311,121.969,31.584,121.92,27.875,121.853z"/>
		<path clip-path="url(#SVGID_4_)" fill="#324654" d="M41.206,124.906c-1.083,0-2.071-0.312-2.902-0.91
			c-3.419-0.033-6.828-0.078-10.223-0.139c-3.576,0.78-7.461,0.392-11.454-1.145c-0.554-0.212-0.983-0.659-1.175-1.22
			c-0.191-0.562-0.125-1.178,0.183-1.685c0.584-0.962,1.589-2.654,2.988-5.032c0.392-0.665,1.128-1.04,1.901-0.979
			c4.71,0.421,9.638,0.741,14.647,0.951c0.46,0.02,0.898,0.196,1.243,0.502c2.939,2.607,5.577,4.353,7.84,5.187
			c0.762,0.281,1.278,0.994,1.308,1.806c0.028,0.812-0.436,1.56-1.175,1.894C43.258,124.647,42.187,124.906,41.206,124.906z
			 M20.351,119.716c2.499,0.644,4.872,0.707,7.066,0.19c0.161-0.038,0.314-0.056,0.493-0.053c2.626,0.047,5.261,0.086,7.902,0.116
			c-0.498-0.396-1.003-0.813-1.514-1.255c-4.386-0.192-8.705-0.469-12.87-0.823C21.031,118.567,20.672,119.176,20.351,119.716z"/>
		<path clip-path="url(#SVGID_4_)" fill="#B9E3ED" d="M43.443,122.268c-2.586-0.978-5.464-2.938-8.496-5.647
			c2.009-2.492,4.367-5.724,6.964-9.51c5.559,0.1,11.174,0.094,16.729-0.011c2.581,3.779,4.92,7.009,6.909,9.501
			c-3.047,2.713-5.943,4.677-8.55,5.66C52.492,122.347,47.954,122.35,43.443,122.268z"/>
		<path clip-path="url(#SVGID_4_)" fill="#324654" d="M50.025,124.327c-2.208,0-4.416-0.02-6.618-0.06
			c-0.229-0.005-0.456-0.048-0.671-0.129c-2.734-1.034-5.804-3.062-9.122-6.027c-0.794-0.71-0.893-1.917-0.225-2.746
			c1.934-2.398,4.246-5.557,6.872-9.386c0.373-0.545,0.991-0.869,1.649-0.869c0.012,0,0.023,0,0.036,0
			c5.447,0.099,11.089,0.095,16.655-0.011c0.65,0.012,1.31,0.315,1.689,0.872c2.624,3.843,4.919,6.999,6.821,9.381
			c0.663,0.831,0.561,2.035-0.233,2.742c-3.332,2.967-6.419,4.998-9.174,6.037c-0.214,0.081-0.439,0.124-0.668,0.129
			C54.712,124.305,52.352,124.327,50.025,124.327z M43.839,120.274c4.249,0.073,8.521,0.072,12.766-0.007
			c1.845-0.751,3.922-2.072,6.193-3.941c-1.54-2.011-3.281-4.425-5.198-7.208c-4.904,0.081-9.834,0.085-14.649,0.01
			c-1.926,2.783-3.683,5.203-5.246,7.226C39.958,118.215,42.014,119.529,43.839,120.274z"/>
		<path clip-path="url(#SVGID_4_)" fill="#B9E3ED" d="M61.006,122.002c-1.059,1.107-2.593,1.182-4.515,0.312
			c2.577-0.95,5.452-2.881,8.48-5.569c5.034-0.212,9.979-0.533,14.737-0.96c1.405,2.391,2.412,4.092,3,5.06
			c-3.578,1.378-7.142,1.804-10.531,1.008C68.469,121.918,64.743,121.968,61.006,122.002z"/>
		<path clip-path="url(#SVGID_4_)" fill="#324654" d="M58.847,124.906c-0.981,0-2.052-0.259-3.182-0.771
			c-0.739-0.335-1.203-1.083-1.174-1.895c0.029-0.811,0.546-1.523,1.308-1.805c2.27-0.837,4.909-2.582,7.844-5.188
			c0.345-0.306,0.784-0.482,1.244-0.502c5.012-0.211,9.938-0.532,14.642-0.954c0.767-0.063,1.512,0.313,1.903,0.979
			c1.397,2.379,2.399,4.072,2.984,5.035c0.308,0.506,0.375,1.123,0.184,1.684c-0.19,0.561-0.621,1.008-1.174,1.221
			c-3.991,1.538-7.878,1.927-11.456,1.146c-3.395,0.061-6.803,0.106-10.221,0.14C60.919,124.594,59.931,124.906,58.847,124.906z
			 M72.178,119.852c0.154,0,0.308,0.018,0.457,0.053c2.196,0.515,4.571,0.451,7.069-0.19c-0.32-0.541-0.68-1.15-1.079-1.827
			c-4.16,0.354-8.479,0.632-12.864,0.825c-0.512,0.441-1.017,0.86-1.516,1.256c2.64-0.03,5.272-0.069,7.896-0.116
			C72.154,119.852,72.166,119.852,72.178,119.852z"/>
		<path clip-path="url(#SVGID_4_)" fill="#B9E3ED" d="M82.851,120.781c-0.591-0.992-1.605-2.716-3.013-5.127
			c3.359-2.84,6.739-6.383,10.025-10.366c4.865-0.508,9.439-1.117,13.597-1.835c1.021,3.272,1.684,6.054,2.036,8.35
			c-3.312,3.152-6.885,5.756-10.611,7.502C91.053,119.875,87.021,120.369,82.851,120.781z"/>
		<path clip-path="url(#SVGID_4_)" fill="#324654" d="M82.851,122.781c-0.699,0-1.354-0.367-1.718-0.977
			c-0.592-0.995-1.61-2.724-3.021-5.143c-0.489-0.839-0.306-1.908,0.437-2.535c3.141-2.654,6.429-6.057,9.773-10.111
			c0.334-0.405,0.813-0.662,1.335-0.717c4.936-0.515,9.465-1.126,13.465-1.816c0.987-0.171,1.951,0.418,2.249,1.375
			c1.016,3.256,1.724,6.164,2.104,8.642c0.1,0.646-0.124,1.301-0.598,1.752c-3.629,3.455-7.378,6.102-11.142,7.865
			c-0.176,0.082-0.362,0.138-0.555,0.167c-3.847,0.572-7.929,1.073-12.132,1.488C82.982,122.778,82.916,122.781,82.851,122.781z
			 M82.401,116.075c0.603,1.029,1.11,1.894,1.52,2.588c3.585-0.372,7.068-0.806,10.377-1.293c3.025-1.455,6.063-3.569,9.048-6.296
			c-0.295-1.606-0.728-3.4-1.293-5.358c-3.412,0.55-7.157,1.045-11.17,1.476C88.009,110.625,85.163,113.605,82.401,116.075z"/>
		<path clip-path="url(#SVGID_4_)" fill="#B9E3ED" d="M93.791,121.266c0.474-0.121,0.705-0.687,0.588-1.832
			c3.733-1.707,7.315-4.28,10.645-7.409c3.692-0.844,7.024-1.794,9.902-2.852c0.045,2.271-0.084,4.192-0.18,5.956
			c-2.967,2.64-6.426,4.66-10.283,5.695C100.947,120.986,97.388,121.134,93.791,121.266z"/>
		<path clip-path="url(#SVGID_4_)" fill="#324654" d="M93.79,123.266c-0.989,0-1.836-0.728-1.979-1.714
			c-0.095-0.658,0.143-1.294,0.593-1.728c-0.003-0.055-0.008-0.116-0.015-0.188c-0.088-0.853,0.378-1.666,1.157-2.022
			c3.37-1.54,6.771-3.911,10.106-7.047c0.259-0.243,0.578-0.413,0.925-0.493c3.677-0.84,6.926-1.774,9.658-2.778
			c0.606-0.225,1.283-0.139,1.817,0.226c0.534,0.365,0.859,0.965,0.872,1.612c0.041,2.092-0.061,3.906-0.149,5.507l-0.033,0.597
			c-0.029,0.532-0.269,1.031-0.668,1.386c-3.369,2.998-7.103,5.062-11.094,6.133c-0.14,0.037-0.282,0.06-0.427,0.067
			c-3.522,0.162-7.086,0.309-10.691,0.442C93.84,123.266,93.814,123.266,93.79,123.266z M105.994,113.852
			c-2.211,2.038-4.459,3.775-6.724,5.197c1.635-0.067,3.262-0.139,4.879-0.213c3.069-0.857,5.974-2.425,8.646-4.666
			c0.04-0.712,0.079-1.438,0.105-2.194C110.804,112.642,108.492,113.269,105.994,113.852z"/>
		<path clip-path="url(#SVGID_4_)" fill="#324654" d="M105.023,112.024c-0.361-2.283-1.036-5.057-2.07-8.323
			c3.154-3.978,6.099-8.326,8.744-12.815c3.798-0.633,7.046-1.354,9.573-2.166c0.551,3.499,0.798,6.62,0.875,9.411
			c-1.954,3.944-4.383,7.713-7.22,11.042C112.047,110.23,108.717,111.181,105.023,112.024z"/>
		<path clip-path="url(#SVGID_4_)" fill="#B9E3ED" d="M125.793,50.757c-1.164-4.233-2.762-8.606-4.769-12.926
			c0.576-3.519,0.846-6.664,0.939-9.473c2.077,1.142,3.483,2.397,4.079,3.771c0.788,3.912,0.975,7.86,0.599,11.625
			c0.551,2.587,1.087,5.447,1.378,8.638C128.267,51.795,127.469,51.249,125.793,50.757z"/>
		<path clip-path="url(#SVGID_4_)" fill="#324654" d="M128.02,54.392c-0.101,0-0.201-0.008-0.303-0.022
			c-0.771-0.118-1.389-0.668-1.61-1.39c-0.189-0.08-0.472-0.185-0.878-0.304c-0.665-0.195-1.182-0.721-1.365-1.389
			c-1.16-4.222-2.726-8.465-4.653-12.613c-0.169-0.364-0.225-0.771-0.16-1.166c0.513-3.131,0.812-6.146,0.914-9.216
			c0.023-0.695,0.405-1.328,1.01-1.672c0.604-0.345,1.344-0.35,1.952-0.015c2.562,1.408,4.182,2.955,4.951,4.728
			c0.056,0.129,0.098,0.264,0.126,0.401c0.799,3.965,1.02,7.969,0.658,11.905c0.434,2.065,0.95,4.744,1.266,7.727
			c0.198,0.582,0.181,1.211-0.062,1.793C129.553,53.914,128.818,54.392,128.02,54.392z M123.096,37.547
			c0.601,1.32,1.169,2.648,1.7,3.983c0.126-2.907-0.097-5.848-0.667-8.77c-0.089-0.17-0.214-0.362-0.387-0.573
			C123.592,33.961,123.378,35.737,123.096,37.547z"/>
		<path clip-path="url(#SVGID_4_)" fill="#B9E3ED" d="M121.964,28.358c-1.982-3.95-4.436-7.726-7.29-11.058
			c0.056-2.281-0.068-4.208-0.173-5.965c2.887,0.875,5.475,1.828,7.705,2.862c1.904,3.231,3.139,6.918,3.648,10.749
			c-0.164,2.326,0.002,4.642,0.188,7.182C125.447,30.756,124.041,29.5,121.964,28.358z"/>
		<path clip-path="url(#SVGID_4_)" fill="#324654" d="M126.042,34.129c-0.781,0-1.511-0.46-1.834-1.204
			c-0.272-0.629-1.051-1.629-3.207-2.813c-0.355-0.195-0.643-0.494-0.824-0.855c-1.977-3.938-4.339-7.521-7.022-10.654
			c-0.321-0.375-0.493-0.855-0.48-1.35c0.051-2.096-0.055-3.856-0.156-5.561l-0.014-0.236c-0.039-0.653,0.244-1.284,0.758-1.689
			c0.512-0.406,1.192-0.533,1.818-0.344c3.024,0.917,5.705,1.913,7.966,2.962c0.368,0.171,0.676,0.449,0.882,0.799
			c2.009,3.408,3.36,7.385,3.908,11.501c0.018,0.134,0.022,0.27,0.013,0.404c-0.149,2.124-0.002,4.308,0.167,6.612
			c0.03,0.138,0.046,0.281,0.046,0.429c0,1.1-0.888,1.992-1.985,2C126.065,34.129,126.054,34.129,126.042,34.129z M123.475,26.917
			c0.106,0.063,0.21,0.125,0.313,0.188c-0.003-0.693,0.015-1.388,0.059-2.089c-0.464-3.304-1.515-6.489-3.055-9.265
			c-1.25-0.556-2.635-1.097-4.142-1.618c0.027,0.771,0.044,1.585,0.036,2.45C119.254,19.673,121.534,23.143,123.475,26.917z"/>
	</g>
	<g>
		<defs>
			<path id="SVGID_5_" d="M114.726,56.565c1.449,27.092-20.727,49.714-48.285,50.316C39.489,108.68,12.89,86.549,13.491,55.846
				c1.028-31.052,27.354-47.7,51.687-45.666C90.329,10.435,114.046,29.042,114.726,56.565z"/>
		</defs>
		<clipPath id="SVGID_6_">
			<use xlink:href="#SVGID_5_"  overflow="visible"/>
		</clipPath>
	</g>
	<path fill="#FFFFFF" d="M28.167,95.895c-1.183,0-2.353-0.521-3.142-1.521c-12.767-16.166-15.292-38.179-6.434-56.08
		c8.354-16.882,25.698-28.27,44.184-29.012c14.532-0.572,27.537,3.501,37.578,11.814c1.702,1.409,1.939,3.931,0.53,5.632
		c-1.41,1.701-3.932,1.938-5.632,0.53c-8.497-7.035-19.62-10.484-32.156-9.983c-15.604,0.626-30.258,10.269-37.334,24.566
		c-7.495,15.146-5.32,33.819,5.541,47.572c1.369,1.734,1.074,4.249-0.659,5.618C29.909,95.614,29.035,95.895,28.167,95.895z"/>
	<path opacity="0.2" fill="#324654" d="M60.437,108.991c-14.191,0-27.533-5.526-37.567-15.563c-1.172-1.172-1.172-3.071,0-4.242
		c1.172-1.172,3.07-1.172,4.242,0c8.901,8.902,20.736,13.805,33.325,13.805c12.589,0,24.424-4.902,33.325-13.805
		c8.901-8.901,13.804-20.736,13.804-33.325c0-12.588-4.902-24.424-13.804-33.326c-1.172-1.172-1.172-3.071,0-4.242
		c1.172-1.172,3.07-1.172,4.242,0c10.035,10.035,15.562,23.378,15.562,37.568c0,14.191-5.526,27.533-15.562,37.567
		C87.971,103.465,74.629,108.991,60.437,108.991z"/>
	<path fill="#324654" d="M63.618,112.204c-29.295,0-53.129-23.834-53.129-53.129S34.323,5.946,63.618,5.946
		c29.295,0,53.129,23.834,53.129,53.129S92.913,112.204,63.618,112.204z M63.618,11.946c-25.987,0-47.129,21.142-47.129,47.129
		s21.142,47.129,47.129,47.129s47.129-21.142,47.129-47.129S89.605,11.946,63.618,11.946z"/>
</g>
</svg>
