<?xml version="1.0" encoding="utf-8"?>
<!-- Generator: Adobe Illustrator 19.1.0, SVG Export Plug-In . SVG Version: 6.00 Build 0)  -->
<svg version="1.1" id="Слой_3" xmlns="http://www.w3.org/2000/svg" xmlns:xlink="http://www.w3.org/1999/xlink" x="0px" y="0px"
	 viewBox="0 0 128 128" enable-background="new 0 0 128 128" xml:space="preserve">
<g>
	
		<rect x="25.801" y="42.176" transform="matrix(-0.7071 0.7071 -0.7071 -0.7071 90.1178 68.8419)" fill="#F6E89A" width="10" height="21.817"/>
	<path fill="#8D4520" d="M34.979,67.334c-0.768,0-1.536-0.293-2.121-0.879L17.431,51.028c-0.563-0.563-0.879-1.326-0.879-2.121
		c0-0.796,0.316-1.559,0.879-2.122l7.071-7.071c1.171-1.171,3.072-1.17,4.242,0l15.427,15.427c0.563,0.563,0.879,1.326,0.879,2.122
		c0,0.795-0.316,1.559-0.879,2.121L37.1,66.455C36.515,67.041,35.747,67.334,34.979,67.334z M23.795,48.907l11.184,11.185
		l2.829-2.829L26.623,46.079L23.795,48.907z"/>
	<polyline fill="#F6E89A" points="30.352,44.92 33.565,41.707 26.494,34.635 12.352,48.778 19.423,55.849 23.349,51.922 	"/>
	<path fill="#8D4520" d="M19.423,58.849c-0.795,0-1.559-0.316-2.121-0.878l-7.071-7.071c-0.563-0.563-0.879-1.326-0.879-2.122
		c0-0.795,0.316-1.559,0.878-2.121l14.142-14.143c1.126-1.126,3.118-1.126,4.243,0l7.071,7.071c1.172,1.171,1.172,3.071,0,4.242
		l-3.213,3.213l-4.242-4.242l1.092-1.092l-2.829-2.829l-9.899,9.9l2.829,2.828l1.805-1.805l4.243,4.242l-3.926,3.927
		C20.982,58.533,20.219,58.849,19.423,58.849z"/>
	<path fill="#8D4520" d="M22.409,53.434c-0.512,0-1.024-0.195-1.414-0.586c-0.781-0.781-0.781-2.047,0-2.828l7.295-7.295
		c0.78-0.781,2.048-0.781,2.828,0c0.781,0.781,0.781,2.047,0,2.828l-7.295,7.295C23.433,53.238,22.921,53.434,22.409,53.434z"/>
	<path fill="#B8CBCD" d="M113.051,114.147c0,5.626-21.675,10.187-48,10.187c-26.326,0-47.335-4.561-47.335-10.187
		c0-5.626,21.341-10.188,47.667-10.188C91.708,103.96,113.051,108.521,113.051,114.147z"/>
	<rect x="59.051" y="28.475" fill="#F6E89A" width="12" height="14.859"/>
	<path fill="#8D4520" d="M71.051,46.334h-12c-1.657,0-3-1.343-3-3V28.475c0-1.657,1.343-3,3-3h12c1.657,0,3,1.343,3,3v14.859
		C74.051,44.991,72.708,46.334,71.051,46.334z M62.051,40.334h6v-8.859h-6V40.334z"/>
	
		<rect x="95.601" y="42.176" transform="matrix(0.7071 0.7071 -0.7071 0.7071 67.0023 -55.5878)" fill="#F6E89A" width="10" height="21.817"/>
	<path fill="#8D4520" d="M96.424,67.334c-0.768,0-1.536-0.293-2.121-0.879l-7.071-7.071c-0.563-0.563-0.879-1.326-0.879-2.121
		c0-0.796,0.316-1.559,0.879-2.122l15.427-15.427c1.171-1.171,3.071-1.171,4.242,0l7.071,7.071c0.563,0.563,0.879,1.326,0.879,2.122
		c0,0.795-0.316,1.559-0.879,2.121L98.545,66.455C97.959,67.041,97.191,67.334,96.424,67.334z M93.595,57.263l2.829,2.829
		l11.184-11.185l-2.829-2.828L93.595,57.263z"/>
	<circle fill="#F6E89A" cx="65.716" cy="79.834" r="39.5"/>
	<path fill="#8D4520" d="M65.716,122.334c-23.435,0-42.5-19.065-42.5-42.5s19.065-42.5,42.5-42.5c23.435,0,42.5,19.065,42.5,42.5
		S89.151,122.334,65.716,122.334z M65.716,43.334c-20.126,0-36.5,16.374-36.5,36.5s16.374,36.5,36.5,36.5
		c20.126,0,36.5-16.374,36.5-36.5S85.842,43.334,65.716,43.334z"/>
	<polyline fill="#F6E89A" points="101.051,44.92 97.838,41.707 104.909,34.635 119.051,48.778 111.98,55.849 108.053,51.922 	"/>
	<path opacity="0.2" fill="#8D4520" d="M65.716,117.334c-23.262,0-42.187-19.065-42.187-42.5c0-1.657,1.343-3,3-3
		c1.657,0,3,1.343,3,3c0,20.126,16.233,36.5,36.187,36.5c19.953,0,36.187-16.374,36.187-36.5c0-1.657,1.343-3,3-3
		c1.657,0,3,1.343,3,3C107.903,98.269,88.978,117.334,65.716,117.334z"/>
	<path fill="#8D4520" d="M111.98,58.849L111.98,58.849c-0.796,0-1.559-0.316-2.122-0.879l-3.926-3.927l4.243-4.242l1.805,1.805
		l2.829-2.828l-9.899-9.9l-2.829,2.829l1.092,1.092l-4.242,4.242l-3.213-3.213c-1.172-1.171-1.172-3.071,0-4.242l7.071-7.071
		c0.563-0.563,1.326-0.879,2.121-0.879l0,0c0.796,0,1.559,0.316,2.122,0.879l14.142,14.143c0.563,0.563,0.878,1.326,0.878,2.121
		c0,0.796-0.316,1.559-0.879,2.122l-7.071,7.071C113.538,58.533,112.775,58.849,111.98,58.849z"/>
	<polyline fill="#FFFFFF" points="59.051,31.334 53.051,31.334 53.051,21.334 77.051,21.334 77.051,31.334 71.051,31.334 	"/>
	<path fill="#8D4520" d="M77.051,34.334h-6v-6h3v-4h-18v4h3v6h-6c-1.657,0-3-1.343-3-3v-10c0-1.657,1.343-3,3-3h24
		c1.657,0,3,1.343,3,3v10C80.051,32.991,78.708,34.334,77.051,34.334z"/>
	<path fill="#8D4520" d="M47.064,47.214c-0.83,0-1.656-0.343-2.249-1.014c-4.615-5.224-6.764-10.582-6.764-16.866
		c0-14.888,12.112-27,27-27s27,12.112,27,27c0,5.773-1.8,11.282-5.207,15.934c-0.979,1.335-2.857,1.625-4.193,0.648
		c-1.337-0.979-1.627-2.856-0.648-4.193c2.648-3.616,4.047-7.9,4.047-12.389c0-11.58-9.42-21-21-21s-21,9.42-21,21
		c0,4.799,1.623,8.775,5.26,12.894c1.097,1.242,0.98,3.138-0.262,4.234C48.479,46.966,47.77,47.214,47.064,47.214z"/>
	<circle fill="#8D4520" cx="56.051" cy="52.334" r="3"/>
	<circle fill="#8D4520" cx="56.051" cy="52.334" r="3"/>
	<circle fill="#8D4520" cx="40.314" cy="65.098" r="3"/>
	<circle fill="#8D4520" cx="36.465" cy="84.992" r="3"/>
	<circle fill="#8D4520" cx="46.302" cy="102.706" r="3"/>
	<circle fill="#8D4520" cx="65.225" cy="109.951" r="3"/>
	<circle fill="#8D4520" cx="84.378" cy="103.339" r="3"/>
	<circle fill="#8D4520" cx="94.799" cy="85.962" r="3"/>
	<circle fill="#8D4520" cx="91.613" cy="65.952" r="3"/>
	<circle fill="#8D4520" cx="76.31" cy="52.671" r="3"/>
	<path fill="#FFFFFF" d="M72.147,78.76c2.631,3.199,2.445,5.11-0.754,7.741c-3.199,2.631-5.11,2.445-7.742-0.754
		c-2.631-3.199-14.6-26.413-14.6-26.413S69.516,75.56,72.147,78.76z"/>
	<path fill="#8D4520" d="M67.603,90.324c-2.461,0-4.23-1.768-5.496-3.307c-2.689-3.269-13.598-24.371-14.833-26.767
		c-0.432-0.837-0.22-1.863,0.507-2.461c0.728-0.599,1.774-0.608,2.513-0.022c2.112,1.674,20.71,16.453,23.398,19.723
		c1.164,1.415,2.472,3.324,2.255,5.548c-0.217,2.224-1.869,3.844-3.284,5.008C70.747,89.622,69.186,90.324,67.603,90.324z
		 M55.243,66.864c4.168,7.872,8.624,15.996,9.953,17.612c1.022,1.244,1.81,1.848,2.407,1.848c0.568,0,1.416-0.46,2.52-1.368
		c1.168-0.96,1.788-1.736,1.844-2.307c0.056-0.57-0.403-1.452-1.363-2.619C69.274,78.414,62.163,72.474,55.243,66.864z"/>
	<path fill="#8D4520" d="M108.994,53.434c-0.512,0-1.024-0.195-1.414-0.586l-7.295-7.295c-0.781-0.781-0.781-2.047,0-2.828
		c0.78-0.781,2.048-0.781,2.828,0l7.295,7.295c0.781,0.781,0.781,2.047,0,2.828C110.018,53.238,109.506,53.434,108.994,53.434z"/>
	<rect x="57.488" y="28.334" fill="#8D4520" width="15.313" height="4"/>
</g>
</svg>
